# xmcd
#
# Track frame offsets:
# 150
# 20626
# 38263
# 57046
# 75036
# 95489
# 112840
# 126917
# 142944
# 159580
# 175238
# 194382
# 210861
# 228915
# 243698
# 264836
# 282107
# 301607
# 326325
# 339611
#
# Disc length: 4793 seconds
#
#
# Revision: 0
# Processed by: cddbd v1.5.2PL0 Copyright (c) Steve Scherf et al.
# Submitted via: FreeRIP 2.945 
#
DISCID=f312b714
DTITLE=Rick and Renner - Simplesmente Amor
DYEAR=2006
DGENRE=Sertanejo
TTITLE0=Você
TTITLE1=Abrindo As Portas do Coração
TTITLE2=Doidinho Por Você
TTITLE3=Baby
TTITLE4=Filha
TTITLE5=Maravilhosa
TTITLE6=O Teu Amor Me Pegou
TTITLE7=Poucas e Boas
TTITLE8=Pra Ela e Pra Mim
TTITLE9=Ela é Demais
TTITLE10=Cara de Pau
TTITLE11=Eu sem Você
TTITLE12=Loucuras de Amor
TTITLE13=Pra que Fingir
TTITLE14=Força do Amor
TTITLE15=Nos Bares da Cidade
TTITLE16=Simplesmente a Mais Amada
TTITLE17=Só Nós Dois
TTITLE18=Tô Querendo de Novo
TTITLE19=Tonto
EXTD=Simplesmente Amor de Rick and Renner 2006
EXTT0=
EXTT1=
EXTT2=
EXTT3=
EXTT4=
EXTT5=
EXTT6=
EXTT7=
EXTT8=
EXTT9=
EXTT10=
EXTT11=
EXTT12=
EXTT13=
EXTT14=
EXTT15=
EXTT16=
EXTT17=
EXTT18=
EXTT19=
PLAYORDER=
